<svg width="24" height="144" fill="none" xmlns="http://www.w3.org/2000/svg"><path d="M21.68 7.56a1.91 1.91 0 0 0-.35-.66 1.71 1.71 0 0 0-.58-.46 1.85 1.85 0 0 0-.75-.19H6.17a1.82 1.82 0 0 0-.57.13l-.06-.3a1.91 1.91 0 0 0-2-1.83h-1a.75.75 0 0 0 0 1.5h1c.42 0 .49.07.57.59l1.09 5.54.54 2.78A3.86 3.86 0 0 0 7 16.89a3.76 3.76 0 0 0 1.54.75A2 2 0 0 0 8 19a2 2 0 0 0 4 0 2 2 0 0 0-.46-1.25h2.88a2 2 0 1 0 3.06-.12 3.8 3.8 0 0 0 1.46-.7 3.71 3.71 0 0 0 1.32-2.1l1.47-6.46V8.3a1.68 1.68 0 0 0-.05-.74Zm-2.89 6.93a2.24 2.24 0 0 1-2.2 1.76H9.38a2.25 2.25 0 0 1-2.19-1.82L6 8.1A.62.62 0 0 1 6 8v-.14a.39.39 0 0 1 .1-.08H20a.28.28 0 0 1 .13 0 .39.39 0 0 1 .1.08c.03.03.05.069.06.11a.405.405 0 0 1 0 .11l-1.5 6.41ZM20 28.25H4A1.76 1.76 0 0 0 2.25 30v12A1.76 1.76 0 0 0 4 43.75h16A1.76 1.76 0 0 0 21.75 42V30A1.76 1.76 0 0 0 20 28.25Zm-1 1.5-6.09 4.63a1.32 1.32 0 0 1-1.51 0l-6.24-4.63H19Zm1 12.5H4a.25.25 0 0 1-.25-.25V30.57l6.71 5a2.86 2.86 0 0 0 3.29 0l6.5-4.94V42a.25.25 0 0 1-.25.25ZM21 65.25h-1.25V59a7.76 7.76 0 0 0-6.06-7.56 2.12 2.12 0 0 0 .06-.44 1.75 1.75 0 0 0-3.5 0c.005.148.025.296.06.44A7.76 7.76 0 0 0 4.25 59v6.25H3a.75.75 0 1 0 0 1.5h5.25V67a3.75 3.75 0 0 0 7.5 0v-.25H21a.75.75 0 1 0 0-1.5ZM14.25 67a2.25 2.25 0 0 1-4.5 0v-.25h4.5V67Zm.75-1.75H5.75V59a6.25 6.25 0 0 1 12.5 0v6.25H15Z" fill="#2E3137"/><path fill-rule="evenodd" clip-rule="evenodd" d="M8 74.25h8A2.75 2.75 0 0 1 18.75 77v14A2.75 2.75 0 0 1 16 93.75H8A2.75 2.75 0 0 1 5.25 91V77A2.75 2.75 0 0 1 8 74.25Zm8.884 17.634A1.25 1.25 0 0 0 17.25 91V77A1.25 1.25 0 0 0 16 75.75h-1A1.49 1.49 0 0 1 13.5 77h-3A1.49 1.49 0 0 1 9 75.75H8A1.25 1.25 0 0 0 6.75 77v14A1.25 1.25 0 0 0 8 92.25h8c.331 0 .65-.132.884-.366ZM11 89.25h2a.75.75 0 1 1 0 1.5h-2a.75.75 0 1 1 0-1.5Z" fill="#8D96AA"/><path fill-rule="evenodd" clip-rule="evenodd" d="M20 109.35c.494.315.85.804 1 1.37a2.111 2.111 0 0 1-.27 1.67l-.47.84a2.34 2.34 0 0 1-2.06 1.19 2.57 2.57 0 0 1-.87-.18l-.51-.24a8.074 8.074 0 0 1-2.07 1.21v.28a2.28 2.28 0 0 1-2.25 2.25h-1a2.278 2.278 0 0 1-2.25-2.25v-.28a7.977 7.977 0 0 1-2.18-1.28l-.13.07a1.83 1.83 0 0 1-1.14.45 2.331 2.331 0 0 1-1.94-1.16l-.49-.79a2.08 2.08 0 0 1-.29-1.68 2.268 2.268 0 0 1 1-1.34l.31-.18a7.232 7.232 0 0 1-.12-1.3 7.14 7.14 0 0 1 .06-1.18l-.25-.14a2.33 2.33 0 0 1-1.05-1.37 2.11 2.11 0 0 1 .3-1.7l.47-.84a2.334 2.334 0 0 1 2-1.19c.298.009.593.07.87.18l.51.24a8.058 8.058 0 0 1 2.07-1.22v-.28a2.28 2.28 0 0 1 2.25-2.25h1a2.28 2.28 0 0 1 2.25 2.25v.28a8.17 8.17 0 0 1 2.19 1.28l.19-.11a2.756 2.756 0 0 1 1.17-.3 2.329 2.329 0 0 1 1.95 1.16l.41.72a2.187 2.187 0 0 1 .26 1.71 2.73 2.73 0 0 1-1 1.28l-.31.18c.08.429.12.864.12 1.3.006.385-.017.769-.07 1.15l.34.2Zm-1.07 3.16.49-.87h.03a.728.728 0 0 0 .13-.56c-.08-.19-.216-.35-.39-.46l-1.24-.71.12-.54c.107-.449.16-.909.16-1.37a6.005 6.005 0 0 0-.19-1.45l-.14-.55 1.23-.75c.159-.131.282-.3.36-.49a.73.73 0 0 0-.11-.44l-.43-.75a.821.821 0 0 0-.65-.42c-.16.01-.316.051-.46.12l-1.11.64-.41-.39a6.251 6.251 0 0 0-2.53-1.48l-.54-.16v-1.38a.779.779 0 0 0-.75-.75h-1a.78.78 0 0 0-.75.75v1.34l-.54.16a6.185 6.185 0 0 0-2.43 1.44l-.41.37-1.2-.67a1.244 1.244 0 0 0-.37-.09.824.824 0 0 0-.66.44l-.49.87a.728.728 0 0 0-.13.56c.08.19.216.35.39.46l1.16.67-.13.53a6.474 6.474 0 0 0-.17 1.42c.014.508.091 1.012.23 1.5l.1.5-1.23.8a.926.926 0 0 0-.35.43.649.649 0 0 0 .1.5l.51.82a.845.845 0 0 0 .67.45.418.418 0 0 0 .2-.13l.12-.08 1.15-.66.41.39a6.25 6.25 0 0 0 2.53 1.48l.54.12v1.38a.778.778 0 0 0 .75.75h1a.779.779 0 0 0 .75-.75v-1.34l.54-.16a6.307 6.307 0 0 0 2.41-1.44l.4-.38 1.2.68c.118.049.243.079.37.09a.856.856 0 0 0 .76-.44Zm-9.018-7.648a3.744 3.744 0 0 1 4.727.49A3.76 3.76 0 0 1 15.73 108a3.751 3.751 0 0 1-6.412 2.631 3.751 3.751 0 0 1 .594-5.769Zm.831 5.008a2.251 2.251 0 0 0 3.111-3.125 2.253 2.253 0 0 0-2.314-.961 2.242 2.242 0 0 0-1.768 1.776 2.25 2.25 0 0 0 .971 2.31Z" fill="#2E3137"/><path d="M12 135.25a.745.745 0 0 1-.53-.22l-5-5A.75.75 0 0 1 7.53 129l4.47 4.44 4.47-4.44a.754.754 0 0 1 .923.084.748.748 0 0 1 .137.916l-5 5a.736.736 0 0 1-.53.25Z" fill="#2E3137"/></svg>